#N canvas 227 173 1138 569 10;
#X obj 69 28 netreceive 8000;
#X obj 868 42 loadbang;
#X obj 868 63 delay 100;
#X msg 868 87 \; pd dsp 1;
#X obj 69 60 route pc0 pc1 pc2 pc3;
#X obj 69 89 s pc0;
#X obj 109 89 s pc1;
#X obj 150 89 s pc2;
#X obj 191 89 s pc3;
#X obj 535 460 dac~;
#X obj 534 249 square~ 100;
#X obj 534 415 *~;
#X obj 550 383 vline~;
#X msg 550 358 1 30 \, 0 500 30;
#X obj 534 92 tgl 15 0 empty empty empty 17 7 0 10 -262144 -1 -1 0
1;
#X obj 534 143 random 12;
#X obj 534 167 + 60;
#X obj 534 189 mtof;
#X obj 550 279 osc~ 0.1;
#X obj 534 220 t f b;
#X obj 534 117 metro 200;
#X obj 535 321 vcf~ 10;
#X obj 550 299 expr~ 800+600*$v1;
#X connect 0 0 4 0;
#X connect 1 0 2 0;
#X connect 2 0 3 0;
#X connect 4 0 5 0;
#X connect 4 1 6 0;
#X connect 4 2 7 0;
#X connect 4 3 8 0;
#X connect 10 0 21 0;
#X connect 11 0 9 0;
#X connect 11 0 9 1;
#X connect 12 0 11 1;
#X connect 13 0 12 0;
#X connect 14 0 20 0;
#X connect 15 0 16 0;
#X connect 16 0 17 0;
#X connect 17 0 19 0;
#X connect 18 0 22 0;
#X connect 19 0 10 0;
#X connect 19 1 13 0;
#X connect 20 0 15 0;
#X connect 21 0 11 0;
#X connect 22 0 21 1;
