#N canvas 569 242 1138 569 10;
#X obj 179 38 netreceive 8000;
#X obj 179 119 unpack f f f f f f f f;
#X obj 33 198 osc~;
#X obj 33 261 dac~;
#X obj 699 41 loadbang;
#X obj 699 62 delay 100;
#X msg 699 86 \; pd dsp 1;
#X obj 93 198 osc~;
#X obj 94 226 *~ 0.08;
#X obj 93 261 dac~;
#X obj 152 198 osc~;
#X obj 153 226 *~ 0.08;
#X obj 152 261 dac~;
#X obj 212 198 osc~;
#X obj 213 226 *~ 0.08;
#X obj 212 261 dac~;
#X obj 273 198 osc~;
#X obj 274 226 *~ 0.08;
#X obj 273 261 dac~;
#X obj 333 198 osc~;
#X obj 334 226 *~ 0.08;
#X obj 333 261 dac~;
#X obj 392 198 osc~;
#X obj 393 226 *~ 0.08;
#X obj 392 261 dac~;
#X obj 452 198 osc~;
#X obj 453 226 *~ 0.08;
#X obj 452 261 dac~;
#X obj 34 226 *~ 0.5;
#X connect 0 0 1 0;
#X connect 1 0 2 0;
#X connect 2 0 28 0;
#X connect 4 0 5 0;
#X connect 5 0 6 0;
#X connect 7 0 8 0;
#X connect 8 0 9 0;
#X connect 8 0 9 1;
#X connect 10 0 11 0;
#X connect 11 0 12 0;
#X connect 11 0 12 1;
#X connect 13 0 14 0;
#X connect 14 0 15 0;
#X connect 14 0 15 1;
#X connect 16 0 17 0;
#X connect 17 0 18 0;
#X connect 17 0 18 1;
#X connect 19 0 20 0;
#X connect 20 0 21 0;
#X connect 20 0 21 1;
#X connect 22 0 23 0;
#X connect 23 0 24 0;
#X connect 23 0 24 1;
#X connect 25 0 26 0;
#X connect 26 0 27 0;
#X connect 26 0 27 1;
#X connect 28 0 3 0;
#X connect 28 0 3 1;
