#N canvas 219 173 1138 569 10;
#X obj 69 28 netreceive 8000;
#X obj 868 42 loadbang;
#X obj 868 63 delay 100;
#X msg 868 87 \; pd dsp 1;
#X obj 69 100 unpack f f f f;
#X obj 112 189 route trough0 peak0 trough1 peak1 trough2 peak2 trough3
peak3;
#X obj 112 266 bng 15 250 50 0 empty empty empty 17 7 0 10 -262144
-1 -1;
#X obj 142 266 bng 15 250 50 0 empty empty empty 17 7 0 10 -262144
-1 -1;
#X obj 172 266 bng 15 250 50 0 empty empty empty 17 7 0 10 -262144
-1 -1;
#X obj 202 266 bng 15 250 50 0 empty empty empty 17 7 0 10 -262144
-1 -1;
#X obj 242 266 bng 15 250 50 0 empty empty empty 17 7 0 10 -262144
-1 -1;
#X obj 272 266 bng 15 250 50 0 empty empty empty 17 7 0 10 -262144
-1 -1;
#X obj 302 266 bng 15 250 50 0 empty empty empty 17 7 0 10 -262144
-1 -1;
#X obj 332 266 bng 15 250 50 0 empty empty empty 17 7 0 10 -262144
-1 -1;
#X obj 114 387 osc~;
#X msg 114 346 60;
#X obj 114 367 mtof;
#X obj 116 491 dac~;
#X obj 130 433 vline~;
#X obj 115 459 *~;
#X obj 234 387 osc~;
#X obj 234 367 mtof;
#X obj 236 491 dac~;
#X obj 250 433 vline~;
#X obj 235 459 *~;
#X obj 354 387 osc~;
#X obj 354 367 mtof;
#X obj 356 491 dac~;
#X obj 370 433 vline~;
#X obj 355 459 *~;
#X obj 474 387 osc~;
#X obj 474 367 mtof;
#X obj 476 491 dac~;
#X obj 490 433 vline~;
#X obj 475 459 *~;
#X obj 594 387 osc~;
#X obj 594 367 mtof;
#X obj 596 491 dac~;
#X obj 610 433 vline~;
#X obj 595 459 *~;
#X obj 714 387 osc~;
#X obj 714 367 mtof;
#X obj 716 491 dac~;
#X obj 730 433 vline~;
#X obj 715 459 *~;
#X obj 834 387 osc~;
#X obj 834 367 mtof;
#X obj 836 491 dac~;
#X obj 850 433 vline~;
#X obj 835 459 *~;
#X obj 954 387 osc~;
#X obj 954 367 mtof;
#X obj 956 491 dac~;
#X obj 970 433 vline~;
#X obj 955 459 *~;
#X msg 234 346 64;
#X msg 354 346 67;
#X msg 474 346 69;
#X msg 594 346 72;
#X msg 714 346 77;
#X msg 834 346 79;
#X msg 954 346 81;
#X obj 665 209 loadbang;
#X obj 672 257 bng 15 250 50 0 empty empty empty 17 7 0 10 -262144
-1 -1;
#X msg 250 415 0.2 30 \, 0 100 30;
#X msg 130 415 0.2 30 \, 0 400 30;
#X msg 371 416 0.2 30 \, 0 400 30;
#X msg 490 415 0.2 30 \, 0 400 30;
#X msg 610 415 0.2 30 \, 0 400 30;
#X msg 730 415 0.2 30 \, 0 400 30;
#X msg 850 415 0.2 30 \, 0 400 30;
#X msg 970 415 0.2 30 \, 0 400 30;
#X obj 69 60 route events;
#X connect 0 0 72 0;
#X connect 1 0 2 0;
#X connect 2 0 3 0;
#X connect 5 0 6 0;
#X connect 5 1 7 0;
#X connect 5 2 8 0;
#X connect 5 3 9 0;
#X connect 5 4 10 0;
#X connect 5 5 11 0;
#X connect 5 6 12 0;
#X connect 5 7 13 0;
#X connect 6 0 65 0;
#X connect 8 0 66 0;
#X connect 9 0 67 0;
#X connect 10 0 68 0;
#X connect 11 0 69 0;
#X connect 12 0 70 0;
#X connect 13 0 71 0;
#X connect 14 0 19 0;
#X connect 15 0 16 0;
#X connect 16 0 14 0;
#X connect 18 0 19 1;
#X connect 19 0 17 0;
#X connect 19 0 17 1;
#X connect 20 0 24 0;
#X connect 21 0 20 0;
#X connect 23 0 24 1;
#X connect 24 0 22 0;
#X connect 24 0 22 1;
#X connect 25 0 29 0;
#X connect 26 0 25 0;
#X connect 28 0 29 1;
#X connect 29 0 27 0;
#X connect 29 0 27 1;
#X connect 30 0 34 0;
#X connect 31 0 30 0;
#X connect 33 0 34 1;
#X connect 34 0 32 0;
#X connect 34 0 32 1;
#X connect 35 0 39 0;
#X connect 36 0 35 0;
#X connect 38 0 39 1;
#X connect 39 0 37 0;
#X connect 39 0 37 1;
#X connect 40 0 44 0;
#X connect 41 0 40 0;
#X connect 43 0 44 1;
#X connect 44 0 42 0;
#X connect 44 0 42 1;
#X connect 45 0 49 0;
#X connect 46 0 45 0;
#X connect 48 0 49 1;
#X connect 49 0 47 0;
#X connect 49 0 47 1;
#X connect 50 0 54 0;
#X connect 51 0 50 0;
#X connect 53 0 54 1;
#X connect 54 0 52 0;
#X connect 54 0 52 1;
#X connect 55 0 21 0;
#X connect 56 0 26 0;
#X connect 57 0 31 0;
#X connect 58 0 36 0;
#X connect 59 0 41 0;
#X connect 60 0 46 0;
#X connect 61 0 51 0;
#X connect 62 0 63 0;
#X connect 63 0 15 0;
#X connect 63 0 55 0;
#X connect 63 0 56 0;
#X connect 63 0 57 0;
#X connect 63 0 58 0;
#X connect 63 0 59 0;
#X connect 63 0 60 0;
#X connect 63 0 61 0;
#X connect 64 0 23 0;
#X connect 65 0 18 0;
#X connect 66 0 28 0;
#X connect 67 0 33 0;
#X connect 68 0 38 0;
#X connect 69 0 43 0;
#X connect 70 0 48 0;
#X connect 71 0 53 0;
#X connect 72 0 5 0;
