#N canvas 61 313 743 380 10;
#X obj 33 327 outlet~;
#X obj 133 202 osc~;
#X obj 117 229 *~;
#X text 94 328 envelope;
#X obj 95 203 osc~;
#X obj 33 38 inlet~;
#X text 32 13 signal;
#X obj 192 37 inlet;
#X obj 192 216 vline~;
#X obj 315 35 inlet;
#X text 312 13 bpm;
#X msg 192 195 1 30 \, 0 30 \$1;
#X obj 118 254 *~;
#X obj 34 284 *~;
#X obj 133 179 / 120;
#X obj 192 173 expr $f1*60000/$f2-60;
#X msg 116 116 0.785398;
#X text 119 85 set phase to pi/4;
#X text 410 33 nLFO - generate a finite number of LFO pulses acts as
a filter \, signal goes in left inlet middle inlet is number of pulses
\, e.g. 3 right inlet is bpm \, e.g. 120 - set this first;
#X text 190 13 npulses;
#X connect 1 0 2 1;
#X connect 2 0 12 0;
#X connect 4 0 2 0;
#X connect 5 0 13 0;
#X connect 7 0 15 0;
#X connect 7 0 16 0;
#X connect 8 0 12 1;
#X connect 9 0 14 0;
#X connect 9 0 15 1;
#X connect 11 0 8 0;
#X connect 12 0 13 1;
#X connect 13 0 0 0;
#X connect 14 0 4 0;
#X connect 14 0 1 0;
#X connect 15 0 11 0;
#X connect 16 0 4 1;
#X connect 16 0 1 1;
