#N canvas 670 79 450 627 10;
#X obj 195 186 square~;
#X obj 390 186 osc~;
#X obj 292 187 phasor~;
#X obj 197 507 dac~;
#X obj 196 240 expr~ 0.3*$v1 + 0.2*$v2 + 0.1*$v3;
#X obj 292 154 * 2;
#X obj 390 154 * 3;
#X msg 223 39 60;
#X obj 254 123 mtof;
#X msg 253 39 64;
#X msg 283 39 65;
#X obj 197 430 *~;
#X obj 211 409 vline~;
#X obj 249 88 t f b;
#X obj 211 309 vline~;
#X msg 211 287 800 0 \, 200 250;
#X obj 196 334 vcf~ 10;
#X msg 211 386 1 40 \, 0 350 40;
#X obj 66 287 osc~ 200;
#X obj 64 435 dac~;
#X floatatom 86 351 5 0 0 0 - - -;
#X msg 72 319 3;
#X obj 65 384 nLFO;
#X connect 0 0 4 0;
#X connect 1 0 4 2;
#X connect 2 0 4 1;
#X connect 4 0 16 0;
#X connect 5 0 2 0;
#X connect 6 0 1 0;
#X connect 7 0 13 0;
#X connect 8 0 0 0;
#X connect 8 0 5 0;
#X connect 8 0 6 0;
#X connect 9 0 13 0;
#X connect 10 0 13 0;
#X connect 11 0 3 0;
#X connect 11 0 3 1;
#X connect 12 0 11 1;
#X connect 13 0 8 0;
#X connect 13 1 17 0;
#X connect 13 1 15 0;
#X connect 14 0 16 1;
#X connect 15 0 14 0;
#X connect 16 0 11 0;
#X connect 17 0 12 0;
#X connect 18 0 22 0;
#X connect 20 0 22 2;
#X connect 21 0 22 1;
#X connect 22 0 19 0;
#X connect 22 0 19 1;
